<svg 
width="370.3" height="94.1" viewBox="0 0 370.3 94.1" xmlns="http://www.w3.org/2000/svg"><g id="svgGroup" stroke-linecap="round" fill-rule="evenodd" font-size="9pt" stroke="#000" stroke-width="0.55mm" fill="#407353" style="stroke:#000;stroke-width:0.55mm;fill:#407353">

<defs>
    <style>
        #svgGroup {
            opacity: 1;
            animation: fade 2s ease infinite;
        }

        @keyframes fade {
        0%, 100%    { opacity: 0 }
        50%   { opacity: 1 }
  }
      </style>
      </defs>


 <path d="M 7.4 5.001 L 6 3.901 L 6.3 2.401 A 20.362 20.362 0 0 1 7.698 2.087 Q 9.967 1.649 14.185 1.157 A 255.782 255.782 0 0 1 16.95 0.851 Q 23.113 0.2 28.075 0.047 A 95.299 95.299 0 0 1 31 0.001 Q 40.068 0.001 46.263 2.618 A 21.817 21.817 0 0 1 52.05 6.151 Q 59.2 12.301 59.2 26.101 Q 59.2 37.401 55.45 47.751 Q 51.7 58.101 44 65.151 Q 36.3 72.201 26.3 72.201 A 38.972 38.972 0 0 1 17.756 71.219 A 46.637 46.637 0 0 1 14.3 70.301 A 51.693 51.693 0 0 1 10.59 71.093 Q 7.656 71.601 5.25 71.601 A 117.293 117.293 0 0 1 3.58 71.59 Q 1.254 71.557 0.163 71.422 A 8.43 8.43 0 0 1 0 71.401 A 60.861 60.861 0 0 1 0.426 68.55 Q 1.602 61.589 5.382 44.467 A 1885.097 1885.097 0 0 1 6.05 41.451 Q 10.464 21.609 11.236 15.925 A 14.689 14.689 0 0 0 11.4 14.151 A 13.183 13.183 0 0 0 11.103 11.291 A 10.132 10.132 0 0 0 10.05 8.501 A 20.855 20.855 0 0 0 9.211 7.128 Q 8.324 5.803 7.459 5.052 A 6.146 6.146 0 0 0 7.4 5.001 Z M 198.8 5.001 L 197.4 3.901 L 197.7 2.401 A 20.362 20.362 0 0 1 199.098 2.087 Q 201.367 1.649 205.585 1.157 A 255.782 255.782 0 0 1 208.35 0.851 Q 214.513 0.2 219.475 0.047 A 95.299 95.299 0 0 1 222.4 0.001 Q 231.468 0.001 237.663 2.618 A 21.817 21.817 0 0 1 243.45 6.151 Q 250.6 12.301 250.6 26.101 Q 250.6 37.401 246.85 47.751 Q 243.1 58.101 235.4 65.151 Q 227.7 72.201 217.7 72.201 A 38.972 38.972 0 0 1 209.156 71.219 A 46.637 46.637 0 0 1 205.7 70.301 A 51.693 51.693 0 0 1 201.99 71.093 Q 199.056 71.601 196.65 71.601 A 117.293 117.293 0 0 1 194.98 71.59 Q 192.654 71.557 191.563 71.422 A 8.43 8.43 0 0 1 191.4 71.401 A 60.861 60.861 0 0 1 191.826 68.55 Q 193.002 61.589 196.782 44.467 A 1885.097 1885.097 0 0 1 197.45 41.451 Q 201.864 21.609 202.636 15.925 A 14.689 14.689 0 0 0 202.8 14.151 A 13.183 13.183 0 0 0 202.503 11.291 A 10.132 10.132 0 0 0 201.45 8.501 A 20.855 20.855 0 0 0 200.611 7.128 Q 199.724 5.803 198.859 5.052 A 6.146 6.146 0 0 0 198.8 5.001 Z M 140.2 48.301 L 133.4 40.701 A 23.822 23.822 0 0 1 134.446 35.52 A 20.529 20.529 0 0 1 135.5 32.901 A 32.87 32.87 0 0 1 136.44 31.098 Q 137.368 29.456 138.232 28.483 A 7.182 7.182 0 0 1 138.7 28.001 L 140.1 26.701 Q 143.153 26.701 145.147 27.86 A 6.562 6.562 0 0 1 146.6 29.001 Q 148.8 31.301 148.8 34.401 A 36.268 36.268 0 0 1 147.566 43.573 A 49.398 49.398 0 0 1 144.9 51.101 A 47.185 47.185 0 0 1 137.599 62.797 A 43.226 43.226 0 0 1 134.5 66.051 A 27.916 27.916 0 0 1 130.213 69.425 Q 127.456 71.16 124.663 71.81 A 14.775 14.775 0 0 1 121.3 72.201 A 10.839 10.839 0 0 1 118.671 71.901 A 7.231 7.231 0 0 1 114.85 69.601 Q 112.6 67.001 112.6 62.751 Q 112.6 58.912 113.13 52.665 A 257.392 257.392 0 0 1 113.25 51.301 Q 113.9 44.101 113.9 37.001 A 5.599 5.599 0 0 0 113.738 35.716 Q 113.469 34.576 112.75 33.201 Q 111.6 31.001 110.4 29.701 L 110.7 28.501 A 39.547 39.547 0 0 1 115.069 27.302 Q 117.308 26.832 119.333 26.73 A 22.027 22.027 0 0 1 120.45 26.701 Q 123.169 26.701 125.029 27.404 A 6.6 6.6 0 0 1 126.95 28.501 Q 128.784 30.036 129.054 34.336 A 25.043 25.043 0 0 1 129.1 35.901 Q 129.1 38.901 127.3 48.151 A 368.303 368.303 0 0 0 126.688 51.365 Q 125.5 57.776 125.5 59.401 Q 125.5 62.548 126.49 63.219 A 1.061 1.061 0 0 0 127.1 63.401 A 6.323 6.323 0 0 0 129.928 62.671 Q 132.535 61.37 135.45 57.751 Q 140 52.101 140.2 48.301 Z M 323.5 48.301 L 316.7 40.701 A 23.822 23.822 0 0 1 317.746 35.52 A 20.529 20.529 0 0 1 318.8 32.901 A 32.87 32.87 0 0 1 319.74 31.098 Q 320.668 29.456 321.532 28.483 A 7.182 7.182 0 0 1 322 28.001 L 323.4 26.701 Q 326.453 26.701 328.447 27.86 A 6.562 6.562 0 0 1 329.9 29.001 Q 332.1 31.301 332.1 34.401 A 36.268 36.268 0 0 1 330.866 43.573 A 49.398 49.398 0 0 1 328.2 51.101 A 47.185 47.185 0 0 1 320.899 62.797 A 43.226 43.226 0 0 1 317.8 66.051 A 27.916 27.916 0 0 1 313.513 69.425 Q 310.756 71.16 307.963 71.81 A 14.775 14.775 0 0 1 304.6 72.201 A 10.839 10.839 0 0 1 301.971 71.901 A 7.231 7.231 0 0 1 298.15 69.601 Q 295.9 67.001 295.9 62.751 Q 295.9 58.912 296.43 52.665 A 257.392 257.392 0 0 1 296.55 51.301 Q 297.2 44.101 297.2 37.001 A 5.599 5.599 0 0 0 297.038 35.716 Q 296.769 34.576 296.05 33.201 Q 294.9 31.001 293.7 29.701 L 294 28.501 A 39.547 39.547 0 0 1 298.369 27.302 Q 300.608 26.832 302.633 26.73 A 22.027 22.027 0 0 1 303.75 26.701 Q 306.469 26.701 308.329 27.404 A 6.6 6.6 0 0 1 310.25 28.501 Q 312.084 30.036 312.354 34.336 A 25.043 25.043 0 0 1 312.4 35.901 Q 312.4 38.901 310.6 48.151 A 368.303 368.303 0 0 0 309.988 51.365 Q 308.8 57.776 308.8 59.401 Q 308.8 62.548 309.79 63.219 A 1.061 1.061 0 0 0 310.4 63.401 A 6.323 6.323 0 0 0 313.228 62.671 Q 315.835 61.37 318.75 57.751 Q 323.3 52.101 323.5 48.301 Z M 105.9 62.001 L 107.1 61.401 L 108.9 64.901 Q 108 65.701 106.55 66.901 Q 105.1 68.101 101.1 70.151 Q 98.081 71.698 95.518 72.077 A 11.044 11.044 0 0 1 93.9 72.201 A 10.2 10.2 0 0 1 91.202 71.872 Q 88.072 71.013 87.029 67.907 A 9.159 9.159 0 0 1 86.7 66.601 Q 80.57 71.964 75.587 72.191 A 9.627 9.627 0 0 1 75.15 72.201 A 11.095 11.095 0 0 1 66.902 68.687 A 14.365 14.365 0 0 1 66.45 68.201 Q 62.9 64.201 62.9 55.601 A 52.832 52.832 0 0 1 63.521 47.235 Q 64.23 42.82 65.75 39.237 A 25.324 25.324 0 0 1 68.4 34.451 A 22.447 22.447 0 0 1 72.062 30.364 A 14.424 14.424 0 0 1 81.7 26.701 A 21.759 21.759 0 0 1 92.012 29.335 A 25.674 25.674 0 0 1 92.5 29.601 Q 92.67 29.431 93.347 27.669 A 90.993 90.993 0 0 0 93.6 27.001 A 21.57 21.57 0 0 1 96.85 27.274 Q 100.769 27.876 106.2 29.801 A 138.428 138.428 0 0 0 102.295 46.586 A 151.316 151.316 0 0 0 102.2 47.151 A 212.503 212.503 0 0 0 101.544 51.351 Q 100.709 57.1 100.7 59.987 A 20.099 20.099 0 0 0 100.7 60.051 Q 100.7 63.901 101.5 63.901 Q 102.011 63.901 104.84 62.524 A 109.846 109.846 0 0 0 105.9 62.001 Z M 166.5 55.001 L 164.1 55.301 A 18.998 18.998 0 0 0 164.644 58.732 Q 166.183 64.555 171.53 64.697 A 10.157 10.157 0 0 0 171.8 64.701 A 10.959 10.959 0 0 0 174.555 64.332 A 15.154 15.154 0 0 0 176.9 63.501 A 29.412 29.412 0 0 0 178.614 62.676 Q 180.116 61.888 181.1 61.101 L 182.6 59.901 L 185 63.101 A 6.363 6.363 0 0 1 184.462 63.735 Q 183.851 64.376 182.841 65.193 A 36.561 36.561 0 0 1 181.8 66.001 A 51.597 51.597 0 0 1 179.51 67.627 Q 178.366 68.391 177.3 69.001 Q 171.5 72.201 164.6 72.201 Q 157.7 72.201 153.7 67.301 Q 150.327 63.169 149.798 56.337 A 34.161 34.161 0 0 1 149.7 53.701 Q 149.7 41.201 157.25 33.951 A 27.052 27.052 0 0 1 164.513 28.869 A 23.055 23.055 0 0 1 174.4 26.701 A 19.689 19.689 0 0 1 178.689 27.143 A 13.71 13.71 0 0 1 184.1 29.601 Q 187.9 32.501 187.9 37.351 Q 187.9 42.201 185.45 45.501 Q 183 48.801 179.5 50.601 Q 173.487 53.565 168.334 54.664 A 31.71 31.71 0 0 1 166.5 55.001 Z M 270.5 55.001 L 268.1 55.301 A 18.998 18.998 0 0 0 268.644 58.732 Q 270.183 64.555 275.53 64.697 A 10.157 10.157 0 0 0 275.8 64.701 A 10.959 10.959 0 0 0 278.555 64.332 A 15.154 15.154 0 0 0 280.9 63.501 A 29.412 29.412 0 0 0 282.614 62.676 Q 284.116 61.888 285.1 61.101 L 286.6 59.901 L 289 63.101 A 6.363 6.363 0 0 1 288.462 63.735 Q 287.851 64.376 286.841 65.193 A 36.561 36.561 0 0 1 285.8 66.001 A 51.597 51.597 0 0 1 283.51 67.627 Q 282.366 68.391 281.3 69.001 Q 275.5 72.201 268.6 72.201 Q 261.7 72.201 257.7 67.301 Q 254.327 63.169 253.798 56.337 A 34.161 34.161 0 0 1 253.7 53.701 Q 253.7 41.201 261.25 33.951 A 27.052 27.052 0 0 1 268.513 28.869 A 23.055 23.055 0 0 1 278.4 26.701 A 19.689 19.689 0 0 1 282.689 27.143 A 13.71 13.71 0 0 1 288.1 29.601 Q 291.9 32.501 291.9 37.351 Q 291.9 42.201 289.45 45.501 Q 287 48.801 283.5 50.601 Q 277.487 53.565 272.334 54.664 A 31.71 31.71 0 0 1 270.5 55.001 Z M 33.4 6.301 A 26.836 26.836 0 0 0 30.991 6.416 Q 29.765 6.526 28.414 6.744 A 46 46 0 0 0 27.5 6.901 A 121.012 121.012 0 0 1 26.649 13.635 Q 25.534 20.977 23.313 31.271 A 553.092 553.092 0 0 1 21.85 37.851 A 1504.843 1504.843 0 0 0 20.242 44.963 Q 17.05 59.251 16.4 63.801 A 9.739 9.739 0 0 0 18.441 64.529 Q 20.367 65.001 23 65.001 A 10.77 10.77 0 0 0 28.562 63.417 A 15.281 15.281 0 0 0 30.95 61.651 A 24.393 24.393 0 0 0 36.087 55.118 A 28.889 28.889 0 0 0 37 53.301 Q 39.3 48.301 41 42.101 Q 43.9 31.001 43.9 21.901 A 54.137 54.137 0 0 0 43.759 17.836 Q 43.319 12.014 41.5 9.551 A 7.389 7.389 0 0 0 37.888 6.968 Q 36.608 6.52 35.022 6.373 A 17.575 17.575 0 0 0 33.4 6.301 Z M 224.8 6.301 A 26.836 26.836 0 0 0 222.391 6.416 Q 221.165 6.526 219.814 6.744 A 46 46 0 0 0 218.9 6.901 A 121.012 121.012 0 0 1 218.049 13.635 Q 216.934 20.977 214.713 31.271 A 553.092 553.092 0 0 1 213.25 37.851 A 1504.843 1504.843 0 0 0 211.642 44.963 Q 208.45 59.251 207.8 63.801 A 9.739 9.739 0 0 0 209.841 64.529 Q 211.767 65.001 214.4 65.001 A 10.77 10.77 0 0 0 219.962 63.417 A 15.281 15.281 0 0 0 222.35 61.651 A 24.393 24.393 0 0 0 227.487 55.118 A 28.889 28.889 0 0 0 228.4 53.301 Q 230.7 48.301 232.4 42.101 Q 235.3 31.001 235.3 21.901 A 54.137 54.137 0 0 0 235.159 17.836 Q 234.719 12.014 232.9 9.551 A 7.389 7.389 0 0 0 229.288 6.968 Q 228.008 6.52 226.422 6.373 A 17.575 17.575 0 0 0 224.8 6.301 Z M 81.1 63.701 A 7.342 7.342 0 0 0 83.19 63.375 Q 84.742 62.914 86.5 61.801 Q 87.2 47.701 91.2 33.901 Q 88.2 32.601 86.1 32.601 Q 82.5 32.601 79.95 39.651 Q 77.4 46.701 77.4 55.201 A 29.474 29.474 0 0 0 77.519 57.981 Q 77.973 62.738 80.149 63.539 A 2.733 2.733 0 0 0 81.1 63.701 Z M 164 50.401 A 15.706 15.706 0 0 0 168.126 49.103 A 12.491 12.491 0 0 0 172.1 46.101 A 11.766 11.766 0 0 0 174.829 40.368 A 16.587 16.587 0 0 0 175.1 37.301 Q 175.1 31.901 171.9 31.901 Q 168.1 31.901 166.05 38.351 A 46.243 46.243 0 0 0 164.517 44.565 A 34.675 34.675 0 0 0 164 50.401 Z M 268 50.401 A 15.706 15.706 0 0 0 272.126 49.103 A 12.491 12.491 0 0 0 276.1 46.101 A 11.766 11.766 0 0 0 278.829 40.368 A 16.587 16.587 0 0 0 279.1 37.301 Q 279.1 31.901 275.9 31.901 Q 272.1 31.901 270.05 38.351 A 46.243 46.243 0 0 0 268.517 44.565 A 34.675 34.675 0 0 0 268 50.401 Z" vector-effect="non-scaling-stroke"/></g>
 </svg>
